<svg xmlns="http://www.w3.org/2000/svg" width="256" height="256" viewBox="0 0 256 256">
<defs>
    <style>
      .cls-1 {
        fill-rule: evenodd;
      }
    </style>
  </defs>
  <path id="add-alt" class="cls-1" d="M0,128C0,57.469,57.469,0,128,0c70.406,0,128,57.469,128,128,0,70.469-57.5,128-128,128S0,198.5,0,128Zm32,0a96,96,0,1,1,96,96A96.045,96.045,0,0,1,32,128Zm80-48c0-8.406,7.5-16,16-16a16.473,16.473,0,0,1,16,16v32h32a16,16,0,0,1,0,32H144v32a16,16,0,0,1-32,0V144H80a16,16,0,0,1,0-32h32V80Z"/>
</svg>
