<svg xmlns="http://www.w3.org/2000/svg" width="256" height="256" viewBox="0 0 256 256">
    <defs>
        <style>
            .cls-1 {
                fill-rule: evenodd;
            }
        </style>
    </defs>
    <path id="arrow-left-double" class="cls-1" d="M123,60.027c6.125-6.124,7.125-15.872,0-23-7.187-7.186-16.812-6.186-23,0L21,116.018a17.085,17.085,0,0,0,0,24L100,219a15.993,15.993,0,0,0,23,0c6-6,7.125-15.873,0-23L55,128.016Zm96,0c6.125-6.124,7.125-15.872,0-23-7.187-7.186-16.812-6.186-23,0l-79,78.988a17.086,17.086,0,0,0,0,24L196,219a15.993,15.993,0,0,0,23,0c6-6,7.125-15.873,0-23l-68-67.989Z"/>
</svg>
