<svg xmlns="http://www.w3.org/2000/svg" width="256" height="256" viewBox="0 0 256 256">
    <defs>
        <style>
            .cls-1 {
                fill-rule: evenodd;
            }
        </style>
    </defs>
    <path id="arrow-right-double" class="cls-1" d="M133.046,60.04c-6.128-6.127-7.129-15.88,0-23.007,7.19-7.19,16.82-6.189,23.01,0l79.036,79.026a17.093,17.093,0,0,1,0,24.007l-79.036,79.026a16,16,0,0,1-23.01,0c-6-6-7.129-15.88,0-23.007l68.03-68.022ZM37,60.04c-6.128-6.127-7.128-15.88,0-23.007,7.191-7.19,16.82-6.189,23.01,0l79.035,79.026a17.092,17.092,0,0,1,0,24.007L60.013,219.092a16,16,0,0,1-23.01,0c-6-6-7.128-15.88,0-23.007l68.031-68.022Z"/>
</svg>
