<svg xmlns="http://www.w3.org/2000/svg" width="256" height="256" viewBox="0 0 256 256">
<defs>
    <style>
      .cls-1 {
        fill-rule: evenodd;
      }
    </style>
  </defs>
  <path id="bell" class="cls-1" d="M16,224a16,16,0,0,1,0-32,16.451,16.451,0,0,0,16-16V96C32,43.313,75.438,0,128,0c52.5,0,96,43.375,96,96v80a16.451,16.451,0,0,0,16,16,16,16,0,0,1,0,32H160c0,17.406-14.75,32-32,32-17.281,0-32-14.719-32-32H16Zm45-32a52.412,52.412,0,0,0,3-16V96c0-35,28.938-64,64-64s64,28.938,64,64v80a52.412,52.412,0,0,0,3,16H61Z"/>
</svg>
