<svg xmlns="http://www.w3.org/2000/svg" width="256" height="256" viewBox="0 0 256 256">
    <defs>
        <style>
            .cls-1 {
                fill-rule: evenodd;
            }
        </style>
    </defs>
    <path id="calendar" class="cls-1" d="M0,64A31.629,31.629,0,0,1,32,32H64V16a16,16,0,0,1,32,0V32h64V16a16,16,0,0,1,32,0V32h32a31.667,31.667,0,0,1,32,32V224a31.648,31.648,0,0,1-32,32H32A31.572,31.572,0,0,1,0,224V64Zm32,0H64V80a16,16,0,0,0,32,0V64h64V80a16,16,0,0,0,32,0V64h32V224H32V64Zm32,48H96v32H64V112Zm48,0h32v32H112V112Zm48,0h32v32H160V112Zm0,48h32v32H160V160Zm-16,0v32H112V160h32Zm-48,0v32H64V160H96Z"/>
</svg>
