<svg xmlns="http://www.w3.org/2000/svg" width="256" height="256" viewBox="0 0 256 256">
<defs>
    <style>
      .cls-1 {
        fill-rule: evenodd;
      }
    </style>
  </defs>
  <path id="cart" class="cls-1" d="M0,32c0-8.344,7.719-16,16-16H48c8.281,0,13.719,6.219,16,14,1.094,4.219,5,18,5,18H222c19.158,0,33.43,19.386,31.016,34.06C250.155,99.454,244.9,131.419,242,149c-2.681,15.167-16.486,27-32,27H93a32.4,32.4,0,0,1-30.995-23.978L36,48H16C7.688,48,0,40.219,0,32ZM92,144L77,80H221l-11,64H92ZM72,192a24,24,0,1,1-24,24A24.107,24.107,0,0,1,72,192Zm144,0a24,24,0,1,1-24,24A24.026,24.026,0,0,1,216,192Z"/>
</svg>
