<svg xmlns="http://www.w3.org/2000/svg" width="256" height="256" viewBox="0 0 256 256">
    <defs>
        <style>
            .cls-1 {
                fill-rule: evenodd;
            }
        </style>
    </defs>
    <path id="checkbox-checked" class="cls-1" d="M64,128a16.386,16.386,0,0,1,16-16,17.383,17.383,0,0,1,12,5l20,20,52-52a17.24,17.24,0,0,1,12-5,16.343,16.343,0,0,1,16,16,17.322,17.322,0,0,1-5,12l-64,64c-2.469,2.469-6.031,4-11,4s-8.5-1.5-11-4L69,140A17.24,17.24,0,0,1,64,128ZM16,48A32.183,32.183,0,0,1,48,16H208c17.531,0,32,15.406,32,32V208a32.142,32.142,0,0,1-32,32H48a32.163,32.163,0,0,1-32-32V48Z"/>
</svg>
