<svg xmlns="http://www.w3.org/2000/svg" width="256" height="256" viewBox="0 0 256 256">
<defs>
    <style>
      .cls-1 {
        fill-rule: evenodd;
      }
    </style>
  </defs>
  <path id="code" class="cls-1" d="M91,76.027c6.125-6.124,7.125-15.872,0-23-7.187-7.186-16.812-6.187-23,0L5,116.018a17.085,17.085,0,0,0,0,24L68,203a15.993,15.993,0,0,0,23,0c6-6,7.125-15.873,0-23L39,128.016ZM165,179.96c-6.13,6.127-7.131,15.88,0,23.007,7.194,7.19,16.827,6.19,23.019,0l63.067-63.026a17.088,17.088,0,0,0,0-24.007c-6.318-6.315-56.061-56.024-63.067-63.026a16.01,16.01,0,0,0-23.019,0c-6,6-7.131,15.88,0,23.008s52.057,52.022,52.057,52.022S170.008,174.958,165,179.96Z"/>
</svg>
