<svg xmlns="http://www.w3.org/2000/svg" width="256" height="256" viewBox="0 0 256 256">
    <defs>
        <style>
            .cls-1 {
                fill-rule: evenodd;
            }
        </style>
    </defs>
    <path id="danger" class="cls-1" d="M256,128A128,128,0,1,0,128,256,128.093,128.093,0,0,0,256,128ZM128,224c52.6,0,96-43.375,96-96,0-52.562-43.375-96-96-96S32,75.417,32,128C32,180.552,75.4,224,128,224Zm0-32a16,16,0,1,0-16-16A16.364,16.364,0,0,0,128,192Zm0-48a16.407,16.407,0,0,0,16-16V64a16,16,0,0,0-32,0v64A16.43,16.43,0,0,0,128,144Z"/>
</svg>
