<svg xmlns="http://www.w3.org/2000/svg" width="256" height="256" viewBox="0 0 256 256">
    <defs>
        <style>
            .cls-1 {
                fill-rule: evenodd;
            }
        </style>
    </defs>
    <path id="download" class="cls-1" d="M60.04,85.042c-6.127-6.128-15.88-7.129-23.007,0-7.19,7.191-6.189,16.82,0,23.011l79.026,79.038a17.092,17.092,0,0,0,24.007,0l79.026-79.038a16,16,0,0,0,0-23.011c-6-6-15.88-7.129-23.007,0l-52.017,52.026V16.008C144.068,7.691,136.346,0,128.063,0s-16.006,7.785-16.006,16.008V137.067ZM0,208a16.452,16.452,0,0,1,16-16,16.452,16.452,0,0,1,16,16v16H224V208a16,16,0,0,1,32,0v16a32.163,32.163,0,0,1-32,32H32A32.183,32.183,0,0,1,0,224V208Z"/>
</svg>
