<svg xmlns="http://www.w3.org/2000/svg" width="256" height="256" viewBox="0 0 256 256">
    <defs>
        <style>
            .cls-1 {
                fill-rule: evenodd;
            }
        </style>
    </defs>
    <path id="eraser" class="cls-1" d="M16,224H240a16,16,0,0,1,0,32H16A16,16,0,0,1,16,224Zm65-16c-7.937,0-17.062-3.062-25-11L23,164c-5.062-5.062-7-12-7-20s1.25-16.25,9-24L130,15c6.375-6.375,13.188-9,23-9s16.5,3.5,22,9l46,46a30.44,30.44,0,0,1,9,21c0,6.938-1.25,15.25-9,23l-95,95c-5.062,5.063-12.25,8-21,8H81Zm57-66-34,34H81L48,143,94,97Z"/>
</svg>
