<svg xmlns="http://www.w3.org/2000/svg" width="256" height="256" viewBox="0 0 256 256">
<defs>
    <style>
      .cls-1 {
        fill-rule: evenodd;
      }
    </style>
  </defs>
  <path id="eye-off" class="cls-1" d="M0,128L50,72,20,42c-5.469-5.469-5.219-16.781,0-22,5.281-5.281,16.875-5.125,21-1L235,213c6.25,6.25,6.969,15.031,0,22s-16.844,6.156-23,0l-29-29s-18.812,18-55,18a93.336,93.336,0,0,1-66-27C52.25,187.25,0,128,0,128Zm43,0L72,95l12,12s-4,12.969-4,21a48.032,48.032,0,0,0,48,48c8.094,0,21-4,21-4l11,11s-9.937,9-32,9c-20.979,0-34.562-8.562-44-18S43,128,43,128Zm60-93a116.665,116.665,0,0,1,25-3c24,0,49.271,9.021,68,29,13.771,15.1,60,67,60,67l-28,32-23-23,9-9s-27.25-29.833-41-45-29.917-17.667-41-19C122.167,54.333,103,35,103,35Z"/>
</svg>
