<svg xmlns="http://www.w3.org/2000/svg" width="256" height="256" viewBox="0 0 256 256">
<defs>
    <style>
      .cls-1 {
        fill-rule: evenodd;
      }
    </style>
  </defs>
  <path id="eye" class="cls-1" d="M0,128S53.375,67.625,64,57s32.25-25,64-25,53.5,14.5,64,25,64,71,64,71-53.25,60.25-64,71-31.875,25-64,25-55.375-16.375-64-25S0,128,0,128Zm43,0s22.083-25.167,37-42,31.917-22,48-22,33,5.667,48,22,38,42,38,42-22.25,24.5-38,42-31.833,22-48,22-32-4.417-48-22S43,128,43,128Zm85-64h0Zm0,16a48,48,0,1,1-48,48A48,48,0,0,1,128,80Zm0,32a16,16,0,1,1-16,16A16,16,0,0,1,128,112Z"/>
</svg>
