<svg xmlns="http://www.w3.org/2000/svg" width="256" height="256" viewBox="0 0 256 256">
    <defs>
        <style>
            .cls-1 {
                fill-rule: evenodd;
            }
        </style>
    </defs>
    <path id="eye" class="cls-1" d="M0,128S53.375,67.625,64,57s32.25-25,64-25,53.5,14.5,64,25,64,71,64,71-53.25,60.25-64,71-31.875,25-64,25-55.375-16.375-64-25S0,128,0,128Zm43,0s22.083-25.167,37-42,31.917-22,48-22,33,5.667,48,22,38,42,38,42-22.25,24.5-38,42-31.833,22-48,22-32-4.417-48-22S43,128,43,128Zm85,32c-26.063,0-48-22.021-48-48,0-25.917,22.083-48,48-48s48,22.083,48,48S153.938,160,128,160ZM96,96a16,16,0,1,1,16,16A16.429,16.429,0,0,1,96,96Z"/>
</svg>
