<svg xmlns="http://www.w3.org/2000/svg" width="256" height="256" viewBox="0 0 256 256">
    <defs>
        <style>
            .cls-1 {
                fill-rule: evenodd;
            }
        </style>
    </defs>
    <path id="file-duplicate" class="cls-1" d="M112,192H32A32.163,32.163,0,0,1,0,160V32A32.245,32.245,0,0,1,32,0H96c7.969,0,16.969,3.969,21,8l19,19c4.906,4.906,8,13.969,8,21V64h64c8,0,16,3,21,8l19,19c4.938,4.938,8,12.938,8,21V224a32.183,32.183,0,0,1-32,32H144a32.184,32.184,0,0,1-32-32V192Zm32,32V96h48v16a16.451,16.451,0,0,0,16,16h16v96H144ZM112,64v96H32V32H80V48A16.343,16.343,0,0,0,96,64h16Z"/>
</svg>
