<svg xmlns="http://www.w3.org/2000/svg" width="256" height="256" viewBox="0 0 256 256">
    <defs>
        <style>
            .cls-1 {
                fill-rule: evenodd;
            }
        </style>
    </defs>
    <path id="gear" class="cls-1" d="M112,128a16,16,0,1,1,16,16A16.343,16.343,0,0,1,112,128Zm-32,0a48,48,0,0,1,96,0c0,26.156-21.771,48-48,48C101.9,176,80,154.2,80,128ZM65,56A86.547,86.547,0,0,1,97,37a49.168,49.168,0,0,0,31,11,48.956,48.956,0,0,0,31-11s18.188,5.625,32,19c0,0.188-1.937,17.125,7,33a43.541,43.541,0,0,0,24,20,92,92,0,0,1,0,38,47.29,47.29,0,0,0-24,20c-9.5,15.75-7,33-7,33s-11.167,12-32,19c0-.083-11.875-11-31-11a48.748,48.748,0,0,0-31,11,91.636,91.636,0,0,1-32-19s1.938-18.062-7-33a49.218,49.218,0,0,0-24-20,92.182,92.182,0,0,1,0-38A48.123,48.123,0,0,0,58,89C67.667,73.417,64.948,56.167,65,56ZM19,80c12-1.062,15.875-13.75,13-22-2.187-5.875-2.625-11.75,3-18C55.5,19.313,75.5,8,100,3a18.7,18.7,0,0,1,15,7c6.438,7.875,19.313,8,26,0,4.75-6.312,9.375-7.687,15-7,18.125,2.5,45.375,17.688,65,37,3.563,3.688,4.938,10.313,3,17-3.875,13.813,3.75,21.5,13,23,7.25,1.25,11.813,5.625,13,10,7.688,29.5,8.188,45.438,0,75-1.625,5.25-5.25,9.875-13,11-11.562,2.188-16.875,11.813-13,22a17.965,17.965,0,0,1-4,19c-18.125,17.875-41.375,31.688-64,36-5.625.875-10.25-.875-15-7-6.312-8-20.187-8-26,0-4.437,6.063-10.812,8.063-16,7a136.679,136.679,0,0,1-63-36c-4.062-4.25-7.562-8.625-4-19s-1.875-19.812-13-22c-8.437-1.625-12.375-6.5-14-12-7.375-24.75-6-51.062,0-72C7.438,84.188,12.875,80.563,19,80Z"/>
</svg>
