<svg xmlns="http://www.w3.org/2000/svg" width="256" height="256" viewBox="0 0 256 256">
    <defs>
        <style>
            .cls-1 {
                fill-rule: evenodd;
            }
        </style>
    </defs>
    <path id="graph" class="cls-1" d="M33,209c-7.125,7.125-16.844,6.156-23,0s-4.312-17.906,0-22c4.813-4.625,67.781-64.937,73-70s14.375-5.094,22-1c7.563,4.313,56,32,56,32s55-96.094,59-103,14.813-9.125,22-5,10.406,13.75,6,21c-3.594,6.156-62.906,108.969-67,116-5.531,9.406-13.031,11.438-23,6-7.031-4.031-61-35-61-35S39,203,33,209Z"/>
</svg>
