<svg xmlns="http://www.w3.org/2000/svg" width="256" height="256" viewBox="0 0 256 256">
    <defs>
        <style>
            .cls-1 {
                fill-rule: evenodd;
            }
        </style>
    </defs>
    <path id="heart-empty" class="cls-1" d="M139,235l96-96c11.125-11.125,21-28.25,21-52,0-41.062-34.25-71-72-71s-56,27-56,27S109.75,16,72,16A71.583,71.583,0,0,0,0,88c0,16.563,6.375,36.375,21,51l96,96C123.656,241.656,132.406,241.594,139,235ZM108,72c3.333,6.833,9.333,13,20,13s16.75-6.25,20-13c3.75-8,14.083-24,36-24a40.335,40.335,0,0,1,40,40c0,16-7,24-10,27l-86,86L42,115c-3-3-10-11.25-10-27A40.118,40.118,0,0,1,72,48C93.917,48,104.083,63.917,108,72Z"/>
</svg>
