<svg xmlns="http://www.w3.org/2000/svg" width="256" height="256" viewBox="0 0 256 256">
    <defs>
        <style>
            .cls-1 {
                fill-rule: evenodd;
            }
        </style>
    </defs>
    <path id="help" class="cls-1" d="M0,128A128,128,0,1,1,128,256,128.093,128.093,0,0,1,0,128Zm128,96c-52.6,0-96-43.375-96-96,0-52.562,43.375-96,96-96s96,43.417,96,96C224,180.552,180.6,224,128,224Zm0-16a16,16,0,1,1,16-16A16.364,16.364,0,0,1,128,208Zm0-48a16.407,16.407,0,0,1-16-16V128a16.364,16.364,0,0,1,16-16,16,16,0,1,0-16-16,16,16,0,0,1-32,0,48,48,0,0,1,96,0c0,26.344-19.437,40.219-32,45v3A16.43,16.43,0,0,1,128,160Z"/>
</svg>
