<svg xmlns="http://www.w3.org/2000/svg" width="256" height="256" viewBox="0 0 256 256">
    <defs>
        <style>
            .cls-1 {
                fill-rule: evenodd;
            }
        </style>
    </defs>
    <path id="home" class="cls-1" d="M117,20c5.313-5.312,16.625-5.375,22,0L252,133c5.375,5.375,5.25,16.75,0,22a17.007,17.007,0,0,1-24,0l-4-4v73a31.623,31.623,0,0,1-32,32H64a31.591,31.591,0,0,1-32-32V151l-4,4a16.975,16.975,0,0,1-24,0c-5.062-5.062-5.625-16.375,0-22Zm-5,204H64V118l64-63,64,64V224H144V176a16,16,0,0,0-32,0v48Z"/>
</svg>
