<svg xmlns="http://www.w3.org/2000/svg" width="256" height="256" viewBox="0 0 256 256">
    <defs>
        <style>
            .cls-1 {
                fill-rule: evenodd;
            }
        </style>
    </defs>
    <path id="info" class="cls-1" d="M0,128A128,128,0,1,0,128,0,128.093,128.093,0,0,0,0,128ZM128,32c-52.6,0-96,43.375-96,96,0,52.563,43.375,96,96,96s96-43.417,96-96C224,75.448,180.6,32,128,32Zm0,32a16,16,0,1,0,16,16A16.365,16.365,0,0,0,128,64Zm0,48a16.408,16.408,0,0,0-16,16v48a16,16,0,0,0,32,0V128A16.43,16.43,0,0,0,128,112Z"/>
</svg>
