<svg xmlns="http://www.w3.org/2000/svg" width="256" height="256" viewBox="0 0 256 256">
    <defs>
        <style>
            .cls-1 {
                fill-rule: evenodd;
            }
        </style>
    </defs>
    <path id="key" class="cls-1" d="M160,64a32,32,0,0,1,64,0A32,32,0,0,1,160,64ZM137,97s-9-14.937-9-33a64,64,0,1,1,64,64c-19.625,0-32-9-32-9l-33,33,21,21c7.25,7.25,6.063,16.938,0,23s-15.75,7.25-23,0l-21-21L83,196l32,32c6.188,6.188,7.125,15.875,0,23s-17,6-23,0L60,219,44,235a16.053,16.053,0,0,1-23,0c-6.562-6.562-6.687-15.312,0-22Z"/>
</svg>
