<svg xmlns="http://www.w3.org/2000/svg" width="256" height="256" viewBox="0 0 256 256">
    <defs>
        <style>
            .cls-1 {
                fill-rule: evenodd;
            }
        </style>
    </defs>
    <path id="mail" class="cls-1" d="M0,64A31.661,31.661,0,0,1,32,32H224a31.655,31.655,0,0,1,32,32V192a31.745,31.745,0,0,1-32,32H32A31.623,31.623,0,0,1,0,192V64ZM32,169V87l41,41Zm192,0-41-41,41-41v82Zm-23,23H55l41-41a48.667,48.667,0,0,0,64,0ZM55,64H201l-64,64c-4,4-14.031,3.969-18,0Z"/>
</svg>
