<svg xmlns="http://www.w3.org/2000/svg" width="256" height="256" viewBox="0 0 256 256">
    <defs>
    <style>
        .cls-1 {
            fill-rule: evenodd;
        }
    </style>
    </defs>
    <path id="order-descending" class="cls-1" d="M96,175.977h16a15.794,15.794,0,0,1,16,16,16.276,16.276,0,0,1-6,13c-3.062,2.375-33.062,26.309-39,31-7.062,5.343-15.281,5.375-22,0-5.812-4.687-39-31-39-31s-6-4-6-13a15.813,15.813,0,0,1,16-16H48V24a24,24,0,0,1,48,0v151.98ZM128,80c0,8.5,7.563,16,16,16h64a16,16,0,0,0,0-32H144A16.43,16.43,0,0,0,128,80Zm0-64a16.408,16.408,0,0,0,16,16h96a16.473,16.473,0,0,0,16-16A16.43,16.43,0,0,0,240,0H144A16.408,16.408,0,0,0,128,16Zm0,128c0,8.5,7.563,16,16,16h32a16,16,0,0,0,0-32H144A16.43,16.43,0,0,0,128,144Z"/>
</svg>
