<svg xmlns="http://www.w3.org/2000/svg" width="256" height="256" viewBox="0 0 256 256">
    <defs>
        <style>
            .cls-1 {
                fill-rule: evenodd;
            }
        </style>
    </defs>
    <path id="order" class="cls-1" d="M160,80H144a15.8,15.8,0,0,1-16-16,16.283,16.283,0,0,1,6-13c3.063-2.375,33.063-26.312,39-31,7.063-5.344,15.281-5.375,22,0,5.813,4.688,39,31,39,31s6,4,6,13a15.814,15.814,0,0,1-16,16H208V232a24,24,0,0,1-48,0V80ZM96,175.977h16a15.794,15.794,0,0,1,16,16,16.276,16.276,0,0,1-6,13c-3.062,2.375-33.062,26.309-39,31-7.062,5.343-15.281,5.375-22,0-5.812-4.687-39-31-39-31s-6-4-6-13a15.813,15.813,0,0,1,16-16H48V24a24,24,0,0,1,48,0v151.98Z"/>
</svg>
