<svg xmlns="http://www.w3.org/2000/svg" width="256" height="256" viewBox="0 0 256 256">
    <defs>
        <style>
            .cls-1 {
                fill-rule: evenodd;
            }
        </style>
    </defs>
    <path id="pencil" class="cls-1" d="M64,256H16A16.237,16.237,0,0,1,0,240V192c0-2.969,1.906-7.906,5-11L177,9a31.273,31.273,0,0,1,44,0l26,26c11.313,11.313,12.646,32.354,0,45C243.969,83.031,78.031,247.969,75,251S67.031,256,64,256ZM32,224V198L153,77l26,26L58,224H32ZM175,55l23-23,26,26L201,81Z"/>
</svg>
