<svg xmlns="http://www.w3.org/2000/svg" width="256" height="256" viewBox="0 0 256 256">
<defs>
    <style>
      .cls-1 {
        fill-rule: evenodd;
      }
    </style>
  </defs>
  <path id="phone" class="cls-1" d="M0,32C0,14.76,14.7,0,32,0H80c17.313,0,32,14.688,32,32,0,13.438,1.125,20.625,5,33s2.25,23.75-5,31l-11,11c12.75,20.75,26.917,36.167,48,48l11-11c8.625-8.625,21-8,31-5a116.91,116.91,0,0,0,33,5c17.375,0,32,14.688,32,32v48c0,17.167-14.583,32-32,32C100.313,256,0,155.905,0,32ZM224,224C117.714,224,32,137.714,32,32H80a156.454,156.454,0,0,0,7,45L63,101a169.349,169.349,0,0,0,92,92l24-24a151.138,151.138,0,0,0,45,7v48Z"/>
</svg>
