<svg xmlns="http://www.w3.org/2000/svg" width="256" height="256" viewBox="0 0 256 256">
<defs>
    <style>
      .cls-1 {
        fill-rule: evenodd;
      }
    </style>
  </defs>
  <path id="pointer" class="cls-1" d="M128,256S57.313,160.688,48,148,32,113.063,32,96a96,96,0,0,1,192,0c0,20.5-7.312,40-16,52S128,256,128,256Zm0-54s-50.875-67.187-56-74-8-24.583-8-32c0-35.073,28.969-64,64-64,35,0,64,28.813,64,64,0,6-3.25,25.438-8,32S128,202,128,202Zm0-74a32,32,0,1,1,32-32A32.41,32.41,0,0,1,128,128Z"/>
</svg>
