<svg xmlns="http://www.w3.org/2000/svg" width="256" height="256" viewBox="0 0 256 256">
    <defs>
        <style>
            .cls-1 {
                fill-rule: evenodd;
            }
        </style>
    </defs>
    <path id="printer" class="cls-1" d="M0,96A31.629,31.629,0,0,1,32,64H64V16A16.343,16.343,0,0,1,80,0h96a16.386,16.386,0,0,1,16,16V64h32a31.738,31.738,0,0,1,32,32V208a16.408,16.408,0,0,1-16,16H192v16a16.386,16.386,0,0,1-16,16H80a16.364,16.364,0,0,1-16-16V224H16A16.3,16.3,0,0,1,0,208V96Zm32,96V96H224v96H192V176a16.342,16.342,0,0,0-16-16H80a16.3,16.3,0,0,0-16,16v16H32Zm128,0v32H96V192h64ZM96,64V32h64V64H96Zm80,64a16,16,0,1,1,16,16A16.386,16.386,0,0,1,176,128Z"/>
</svg>
