<svg xmlns="http://www.w3.org/2000/svg" width="256" height="256" viewBox="0 0 256 256">
    <defs>
        <style>
            .cls-1 {
                fill-rule: evenodd;
            }
        </style>
    </defs>
    <path id="refresh" class="cls-1" d="M41,222L27,236c-3.062,3.063-7.062,4-11,4-8.437,0-16-7.625-16-16V176a16.43,16.43,0,0,1,16-16H64a16.408,16.408,0,0,1,16,16,15.906,15.906,0,0,1-4,11L64,199s23.917,25,64,25c47.914,0,88.1-35.951,94.966-82.017C223.928,135.031,230.5,128,239,128c9.875,0,17.082,9.066,16,17A127.7,127.7,0,0,1,128,256C72.583,256,41,222,41,222ZM214.854,34L228.9,20c3.073-3.062,7.088-4,11.039-4C248.411,16,256,23.625,256,32V80a16.459,16.459,0,0,1-16.057,16h-48.17a16.437,16.437,0,0,1-16.057-16,15.877,15.877,0,0,1,4.014-11l12.043-12s-24-25-64.228-25c-48.084,0-88.415,35.951-95.3,82.017C31.276,120.969,24.681,128,16.151,128,6.241,128-.992,118.934.094,111,8.367,48.172,62.053,0,127.545,0,183.159,0,214.854,34,214.854,34Z"/>
</svg>
