<svg xmlns="http://www.w3.org/2000/svg" width="256" height="256" viewBox="0 0 256 256">
    <defs>
        <style>
            .cls-1 {
                fill-rule: evenodd;
            }
        </style>
    </defs>
    <path id="repeat" class="cls-1" d="M215,34l14-14c3.063-3.062,7.063-4,11-4,8.438,0,16,7.625,16,16V80a16.429,16.429,0,0,1-16,16H192a16.408,16.408,0,0,1-16-16,15.908,15.908,0,0,1,4-11l12-12s-23.917-25-64-25c-52.667,0-96,43.438-96,96,0,52.5,43.333,96,96,96,52.583,0,89.042-39.417,95-83,1.042-6.646,7.531-13,16-13,13.25,0,16.438,12.313,16,16-6.5,57.406-56.833,112-127,112A128,128,0,0,1,128,0C183.417,0,215,34,215,34Z"/>
</svg>
