<svg xmlns="http://www.w3.org/2000/svg" width="256" height="256" viewBox="0 0 256 256">
    <defs>
        <style>
            .cls-1 {
                fill-rule: evenodd;
            }
        </style>
    </defs>
    <path id="smiley-neutral" class="cls-1" d="M64,96A16.408,16.408,0,0,1,80,80a16,16,0,0,1,0,32A16.429,16.429,0,0,1,64,96Zm96,0a16,16,0,1,1,16,16A16.43,16.43,0,0,1,160,96Zm16,32a16,16,0,0,1,0,32H80a16,16,0,0,1,0-32h96ZM32,128c0-52.25,43.667-96,96-96s96,43.479,96,96c0,52.458-43.562,96-96,96C75.625,224,32,180.4,32,128ZM0,128C0,57.969,57.969,0,128,0c70,0,128,57.938,128,128,0,70.031-57.937,128-128,128C57.906,256,0,198,0,128Z"/>
</svg>
