<svg xmlns="http://www.w3.org/2000/svg" width="256" height="256" viewBox="0 0 256 256">
    <defs>
        <style>
            .cls-1 {
                fill-rule: evenodd;
            }
        </style>
    </defs>
    <path id="smiley" class="cls-1" d="M64,96A16.408,16.408,0,0,1,80,80a16,16,0,0,1,0,32A16.429,16.429,0,0,1,64,96Zm96,0a16,16,0,1,1,16,16A16.43,16.43,0,0,1,160,96ZM32,128c0-52.25,43.667-96,96-96s96,43.479,96,96c0,52.458-43.562,96-96,96C75.625,224,32,180.4,32,128ZM0,128C0,57.969,57.969,0,128,0c70,0,128,57.938,128,128,0,70.031-57.937,128-128,128C57.906,256,0,198,0,128Zm128,32c23,0,30.75-17.833,33-23s9.917-9,15-9a16.444,16.444,0,0,1,16,16c0,4.167-2.167,9.167-5,14-9.125,15.333-28.969,34-59,34-29.906,0-50.583-17.917-59-34-1.5-2.75-5-8.917-5-14a16.393,16.393,0,0,1,16-16c5,0,12.229,3.6,15,9C98.583,144.167,105.125,160,128,160Z"/>
</svg>
