<svg xmlns="http://www.w3.org/2000/svg" width="256" height="256" viewBox="0 0 256 256">
    <defs>
        <style>
            .cls-1 {
                fill-rule: evenodd;
            }
        </style>
    </defs>
    <path id="star" class="cls-1" d="M86,85s-53.687,3.938-70,5S-4.5,110.188,5,119c10.063,9,54,46,54,46s-14.75,62.333-17,72c-3.062,14.854,11.188,24.688,27,15,9.5-6,59-37,59-37s45.188,28.5,59,37c17.813,10.313,30.063-1.312,27-15s-17-72-17-72,43.938-37.437,54-46,4.25-28.062-11-29-70-5-70-5-22.312-55.5-27-67c-6.312-13.5-24.625-13.375-30,0C108,30.938,86,85,86,85Z"/>
</svg>
