<svg xmlns="http://www.w3.org/2000/svg" width="256" height="256" viewBox="0 0 256 256">
    <defs>
        <style>
            .cls-1 {
                fill-rule: evenodd;
            }
        </style>
    </defs>
    <path id="star-empty" class="cls-1" d="M86,85s-53.687,3.938-70,5S-4.5,110.188,5,119c10.063,9,54,46,54,46s-14.75,62.333-17,72c-3.062,14.854,11.188,24.688,27,15,9.5-6,59-37,59-37s45.188,28.5,59,37c17.813,10.313,30.063-1.312,27-15s-17-72-17-72,43.938-37.437,54-46,4.25-28.062-11-29-70-5-70-5-22.312-55.5-27-67c-6.312-13.5-24.625-13.375-30,0C108,30.938,86,85,86,85Zm29,99c-7.352,4.288-32,20-32,20s8.188-30.875,10-38,1-14.125-6-20-32-27-32-27,32.75-2.187,42-3,11.625-5.75,15-13,16-36,16-36,13.313,29.938,16,36,4.75,12.125,15,13,42,3,42,3-27.187,22.25-33,27-7.25,10.875-5,20c2,8.188,10,38,10,38s-25.437-16.187-32-20C131.3,178.58,124.16,178.716,115,184Z"/>
</svg>
