<svg xmlns="http://www.w3.org/2000/svg" width="256" height="256" viewBox="0 0 256 256">
    <defs>
        <style>
            .cls-1 {
                fill-rule: evenodd;
            }
        </style>
    </defs>
    <path id="trash" class="cls-1" d="M64,32A31.533,31.533,0,0,1,96,0h64a31.629,31.629,0,0,1,32,32V48h48a16.364,16.364,0,0,1,16,16,16.386,16.386,0,0,1-16,16H224V224a31.591,31.591,0,0,1-32,32H64a31.571,31.571,0,0,1-32-32V80H16a16,16,0,0,1,0-32H64V32Zm32,0h64V48H96V32ZM64,80H192V224H64V80Zm32,32h16v80H96V112Zm48,0h16v80H144V112Z"/>
</svg>
