<svg xmlns="http://www.w3.org/2000/svg" width="256" height="256" viewBox="0 0 256 256">
<defs>
    <style>
      .cls-1 {
        fill-rule: evenodd;
      }
    </style>
  </defs>
  <path id="wrench" class="cls-1" d="M0,208c0-13,5.917-25.917,12-32l55-55a116.665,116.665,0,0,1-3-25c0-58.917,47.917-96,96-96,34.917,0,55,18,55,18L166,67c-16.746,16.746,5.5,40.5,23,23l49-49s18,20.167,18,55c0,47.917-38.333,96-96,96-16,0-25-3-25-3L80,244c-6.083,6.083-19.083,12-32,12A48.119,48.119,0,0,1,0,208Zm59,12c-4,4-15.125,6.875-22,0s-5.875-18.125-1-23l54.969-54.969c8.065-8.064,9.306-20.338,6.888-30.042A66.66,66.66,0,0,1,96,96c0-22.179,10.028-35.823,21-47,9.89-9.89,26.75-17,39-17L140,48c-7.083,7.083-12,21.943-12,32,0,17,6.571,26.571,14,34a48.268,48.268,0,0,0,34,14c10.212,0,23.857-3.857,32-12,5-5,13.989-14.989,16-17,0,15.215-8.893,32.507-17,41a65.629,65.629,0,0,1-47,20,56.963,56.963,0,0,1-16.155-1.51c-14.2-3.91-23.685.725-31.845,8.51Z"/>
</svg>
