<svg xmlns="http://www.w3.org/2000/svg" width="256" height="256" viewBox="0 0 256 256">
    <defs>
        <style>
            .cls-1 {
                fill-rule: evenodd;
            }
        </style>
    </defs>
    <path id="zoom-out" class="cls-1" d="M256,112a112,112,0,0,0-224,0c0,40.083,23,67,23,67L5,229c-2.187,2.188-5,7-5,11a16.451,16.451,0,0,0,16,16c4.031,0,8.813-1.812,11-4l50-50s27.083,22,67,22A111.869,111.869,0,0,0,256,112ZM144,192a80,80,0,1,0-80-80A79.636,79.636,0,0,0,144,192ZM80,112A16.408,16.408,0,0,1,96,96h96a16,16,0,0,1,0,32H96A16.386,16.386,0,0,1,80,112Z"/>
</svg>
